<mxfile host="Electron" agent="Mozilla/5.0 (Windows NT 10.0; Win64; x64) AppleWebKit/537.36 (KHTML, like Gecko) draw.io/26.2.2 Chrome/134.0.6998.178 Electron/35.1.2 Safari/537.36" version="26.2.2">
  <diagram name="Seite-1" id="gylbvoxMA0md3qg8GaHM">
    <mxGraphModel dx="2068" dy="1201" grid="1" gridSize="10" guides="1" tooltips="1" connect="1" arrows="1" fold="1" page="1" pageScale="1" pageWidth="827" pageHeight="1169" math="0" shadow="0">
      <root>
        <mxCell id="0" />
        <mxCell id="1" parent="0" />
        <mxCell id="5Ts_VFppCyEGoZbiud__-1" value="Visualisierung modelierter Geschäftsprozesse des OpenTalos EAM" style="shape=umlFrame;whiteSpace=wrap;html=1;pointerEvents=0;recursiveResize=0;container=1;collapsible=0;width=400;height=30;align=left;" parent="1" vertex="1">
          <mxGeometry x="10" y="20" width="800" height="1100" as="geometry" />
        </mxCell>
        <mxCell id="5Ts_VFppCyEGoZbiud__-3" value="Programm 2: BPMN Konvertierung" style="shape=umlFrame;whiteSpace=wrap;html=1;pointerEvents=0;recursiveResize=0;container=1;collapsible=0;width=260;height=30;" parent="5Ts_VFppCyEGoZbiud__-1" vertex="1">
          <mxGeometry x="30" y="690" width="710" height="210" as="geometry" />
        </mxCell>
        <mxCell id="wEUyzExfNlaNoi49jksf-5" style="edgeStyle=orthogonalEdgeStyle;rounded=0;orthogonalLoop=1;jettySize=auto;html=1;exitX=1;exitY=0.75;exitDx=0;exitDy=0;entryX=1;entryY=0.5;entryDx=0;entryDy=0;" edge="1" parent="5Ts_VFppCyEGoZbiud__-3" source="5Ts_VFppCyEGoZbiud__-47" target="5Ts_VFppCyEGoZbiud__-50">
          <mxGeometry relative="1" as="geometry" />
        </mxCell>
        <mxCell id="5Ts_VFppCyEGoZbiud__-47" value="Generalsierte Prozesse&lt;div&gt;einlesen&lt;/div&gt;" style="html=1;align=center;verticalAlign=top;rounded=1;absoluteArcSize=1;arcSize=10;dashed=0;whiteSpace=wrap;" parent="5Ts_VFppCyEGoZbiud__-3" vertex="1">
          <mxGeometry x="90" y="55" width="140" height="40" as="geometry" />
        </mxCell>
        <mxCell id="5Ts_VFppCyEGoZbiud__-70" style="edgeStyle=orthogonalEdgeStyle;rounded=0;orthogonalLoop=1;jettySize=auto;html=1;exitX=0;exitY=0.5;exitDx=0;exitDy=0;entryX=1;entryY=0.5;entryDx=0;entryDy=0;" parent="5Ts_VFppCyEGoZbiud__-3" source="5Ts_VFppCyEGoZbiud__-50" target="5Ts_VFppCyEGoZbiud__-55" edge="1">
          <mxGeometry relative="1" as="geometry" />
        </mxCell>
        <mxCell id="5Ts_VFppCyEGoZbiud__-50" value="BPMN Elemente&lt;div&gt;hinzufügen&lt;/div&gt;" style="html=1;align=center;verticalAlign=top;rounded=1;absoluteArcSize=1;arcSize=10;dashed=0;whiteSpace=wrap;" parent="5Ts_VFppCyEGoZbiud__-3" vertex="1">
          <mxGeometry x="470" y="125" width="140" height="40" as="geometry" />
        </mxCell>
        <mxCell id="5Ts_VFppCyEGoZbiud__-57" style="edgeStyle=orthogonalEdgeStyle;rounded=0;orthogonalLoop=1;jettySize=auto;html=1;exitX=0;exitY=0.5;exitDx=0;exitDy=0;entryX=1;entryY=0.5;entryDx=0;entryDy=0;" parent="5Ts_VFppCyEGoZbiud__-3" source="5Ts_VFppCyEGoZbiud__-51" target="5Ts_VFppCyEGoZbiud__-56" edge="1">
          <mxGeometry relative="1" as="geometry" />
        </mxCell>
        <mxCell id="5Ts_VFppCyEGoZbiud__-51" value="BPMN XML&amp;nbsp;&lt;div&gt;erstellen und speichern&lt;/div&gt;" style="html=1;align=center;verticalAlign=top;rounded=1;absoluteArcSize=1;arcSize=10;dashed=0;whiteSpace=wrap;" parent="5Ts_VFppCyEGoZbiud__-3" vertex="1">
          <mxGeometry x="130" y="125" width="140" height="40" as="geometry" />
        </mxCell>
        <mxCell id="5Ts_VFppCyEGoZbiud__-53" style="edgeStyle=orthogonalEdgeStyle;rounded=0;orthogonalLoop=1;jettySize=auto;html=1;exitX=1;exitY=0.5;exitDx=0;exitDy=0;entryX=0;entryY=0.5;entryDx=0;entryDy=0;" parent="5Ts_VFppCyEGoZbiud__-3" source="5Ts_VFppCyEGoZbiud__-52" target="5Ts_VFppCyEGoZbiud__-47" edge="1">
          <mxGeometry relative="1" as="geometry" />
        </mxCell>
        <mxCell id="5Ts_VFppCyEGoZbiud__-52" value="" style="ellipse;fillColor=strokeColor;html=1;" parent="5Ts_VFppCyEGoZbiud__-3" vertex="1">
          <mxGeometry x="10" y="60" width="30" height="30" as="geometry" />
        </mxCell>
        <mxCell id="5Ts_VFppCyEGoZbiud__-71" style="edgeStyle=orthogonalEdgeStyle;rounded=0;orthogonalLoop=1;jettySize=auto;html=1;exitX=0;exitY=0.5;exitDx=0;exitDy=0;entryX=1;entryY=0.5;entryDx=0;entryDy=0;" parent="5Ts_VFppCyEGoZbiud__-3" source="5Ts_VFppCyEGoZbiud__-55" target="5Ts_VFppCyEGoZbiud__-51" edge="1">
          <mxGeometry relative="1" as="geometry" />
        </mxCell>
        <mxCell id="5Ts_VFppCyEGoZbiud__-55" value="BPMN Diagramm&amp;nbsp;&lt;div&gt;erstellen&lt;/div&gt;" style="html=1;align=center;verticalAlign=top;rounded=1;absoluteArcSize=1;arcSize=10;dashed=0;whiteSpace=wrap;" parent="5Ts_VFppCyEGoZbiud__-3" vertex="1">
          <mxGeometry x="300" y="125" width="140" height="40" as="geometry" />
        </mxCell>
        <mxCell id="5Ts_VFppCyEGoZbiud__-56" value="" style="ellipse;html=1;shape=endState;fillColor=strokeColor;" parent="5Ts_VFppCyEGoZbiud__-3" vertex="1">
          <mxGeometry x="10" y="130" width="30" height="30" as="geometry" />
        </mxCell>
        <mxCell id="5Ts_VFppCyEGoZbiud__-61" value="Programm n: XY-Konvertierung" style="shape=umlFrame;whiteSpace=wrap;html=1;pointerEvents=0;recursiveResize=0;container=1;collapsible=0;width=260;height=30;" parent="5Ts_VFppCyEGoZbiud__-1" vertex="1">
          <mxGeometry x="30" y="950" width="710" height="120" as="geometry" />
        </mxCell>
        <mxCell id="5Ts_VFppCyEGoZbiud__-62" value="Generalsierte Prozesse&lt;div&gt;einlesen&lt;/div&gt;" style="html=1;align=center;verticalAlign=top;rounded=1;absoluteArcSize=1;arcSize=10;dashed=0;whiteSpace=wrap;" parent="5Ts_VFppCyEGoZbiud__-61" vertex="1">
          <mxGeometry x="90" y="55" width="140" height="40" as="geometry" />
        </mxCell>
        <mxCell id="5Ts_VFppCyEGoZbiud__-66" style="edgeStyle=orthogonalEdgeStyle;rounded=0;orthogonalLoop=1;jettySize=auto;html=1;exitX=1;exitY=0.5;exitDx=0;exitDy=0;entryX=0;entryY=0.5;entryDx=0;entryDy=0;" parent="5Ts_VFppCyEGoZbiud__-61" source="5Ts_VFppCyEGoZbiud__-67" target="5Ts_VFppCyEGoZbiud__-62" edge="1">
          <mxGeometry relative="1" as="geometry" />
        </mxCell>
        <mxCell id="5Ts_VFppCyEGoZbiud__-67" value="" style="ellipse;fillColor=strokeColor;html=1;" parent="5Ts_VFppCyEGoZbiud__-61" vertex="1">
          <mxGeometry x="10" y="60" width="30" height="30" as="geometry" />
        </mxCell>
        <mxCell id="5Ts_VFppCyEGoZbiud__-73" value="Agiles BPMN-Projekt: 1.Qtl. 2026 Dauer 2-3 Monate" style="text;html=1;align=left;verticalAlign=middle;whiteSpace=wrap;rounded=0;" parent="5Ts_VFppCyEGoZbiud__-1" vertex="1">
          <mxGeometry x="30" y="660" width="600" height="30" as="geometry" />
        </mxCell>
        <mxCell id="modQz7k9_1uLZjvx2WUS-33" value="Skizze Programm 1:&lt;div&gt;Schnittstelle: EAM zu realtional gepseicherten Daten der Modellprozessdaten&lt;/div&gt;" style="shape=umlFrame;whiteSpace=wrap;html=1;pointerEvents=0;recursiveResize=0;container=1;collapsible=0;width=210;height=70;align=left;" parent="5Ts_VFppCyEGoZbiud__-1" vertex="1">
          <mxGeometry x="20" y="90" width="590" height="500" as="geometry" />
        </mxCell>
        <mxCell id="modQz7k9_1uLZjvx2WUS-34" style="edgeStyle=orthogonalEdgeStyle;rounded=0;orthogonalLoop=1;jettySize=auto;html=1;exitX=1;exitY=0.5;exitDx=0;exitDy=0;" parent="modQz7k9_1uLZjvx2WUS-33" source="modQz7k9_1uLZjvx2WUS-36" target="modQz7k9_1uLZjvx2WUS-39" edge="1">
          <mxGeometry relative="1" as="geometry" />
        </mxCell>
        <mxCell id="modQz7k9_1uLZjvx2WUS-35" value="Files[]" style="edgeLabel;html=1;align=center;verticalAlign=middle;resizable=0;points=[];" parent="modQz7k9_1uLZjvx2WUS-34" vertex="1" connectable="0">
          <mxGeometry x="0.1" y="-2" relative="1" as="geometry">
            <mxPoint as="offset" />
          </mxGeometry>
        </mxCell>
        <mxCell id="modQz7k9_1uLZjvx2WUS-36" value="File Auswahl" style="html=1;align=center;verticalAlign=top;rounded=1;absoluteArcSize=1;arcSize=10;dashed=0;whiteSpace=wrap;" parent="modQz7k9_1uLZjvx2WUS-33" vertex="1">
          <mxGeometry x="120" y="132" width="140" height="40" as="geometry" />
        </mxCell>
        <mxCell id="modQz7k9_1uLZjvx2WUS-37" value="- keine GUI&amp;nbsp;&lt;div&gt;- Konfiguration via Programmparemeter oder config-File.&lt;/div&gt;" style="shape=note2;boundedLbl=1;whiteSpace=wrap;html=1;size=25;verticalAlign=top;align=left;" parent="modQz7k9_1uLZjvx2WUS-33" vertex="1">
          <mxGeometry x="100" y="202" width="120" height="98" as="geometry" />
        </mxCell>
        <mxCell id="modQz7k9_1uLZjvx2WUS-38" style="edgeStyle=orthogonalEdgeStyle;rounded=0;orthogonalLoop=1;jettySize=auto;html=1;exitX=0.5;exitY=1;exitDx=0;exitDy=0;entryX=0.5;entryY=0;entryDx=0;entryDy=0;" parent="modQz7k9_1uLZjvx2WUS-33" source="modQz7k9_1uLZjvx2WUS-39" target="modQz7k9_1uLZjvx2WUS-43" edge="1">
          <mxGeometry relative="1" as="geometry" />
        </mxCell>
        <mxCell id="modQz7k9_1uLZjvx2WUS-39" value="Files Parsen und KnotenTypisieren" style="html=1;align=center;verticalAlign=top;rounded=1;absoluteArcSize=1;arcSize=10;dashed=0;whiteSpace=wrap;" parent="modQz7k9_1uLZjvx2WUS-33" vertex="1">
          <mxGeometry x="320" y="132" width="140" height="40" as="geometry" />
        </mxCell>
        <mxCell id="modQz7k9_1uLZjvx2WUS-40" style="edgeStyle=orthogonalEdgeStyle;rounded=0;orthogonalLoop=1;jettySize=auto;html=1;exitX=1;exitY=0.5;exitDx=0;exitDy=0;entryX=0;entryY=0.5;entryDx=0;entryDy=0;" parent="modQz7k9_1uLZjvx2WUS-33" source="modQz7k9_1uLZjvx2WUS-41" target="modQz7k9_1uLZjvx2WUS-36" edge="1">
          <mxGeometry relative="1" as="geometry" />
        </mxCell>
        <mxCell id="modQz7k9_1uLZjvx2WUS-41" value="" style="ellipse;fillColor=strokeColor;html=1;" parent="modQz7k9_1uLZjvx2WUS-33" vertex="1">
          <mxGeometry x="50" y="137" width="30" height="30" as="geometry" />
        </mxCell>
        <mxCell id="modQz7k9_1uLZjvx2WUS-42" style="edgeStyle=orthogonalEdgeStyle;rounded=0;orthogonalLoop=1;jettySize=auto;html=1;exitX=0.5;exitY=1;exitDx=0;exitDy=0;entryX=0.5;entryY=0;entryDx=0;entryDy=0;" parent="modQz7k9_1uLZjvx2WUS-33" source="modQz7k9_1uLZjvx2WUS-43" target="modQz7k9_1uLZjvx2WUS-44" edge="1">
          <mxGeometry relative="1" as="geometry" />
        </mxCell>
        <mxCell id="modQz7k9_1uLZjvx2WUS-43" value="Prozessdaten generalisieren" style="html=1;align=center;verticalAlign=top;rounded=1;absoluteArcSize=1;arcSize=10;dashed=0;whiteSpace=wrap;" parent="modQz7k9_1uLZjvx2WUS-33" vertex="1">
          <mxGeometry x="320" y="222" width="140" height="40" as="geometry" />
        </mxCell>
        <mxCell id="modQz7k9_1uLZjvx2WUS-44" value="Generalisierte Prozessdaten relational Speichern" style="html=1;align=center;verticalAlign=top;rounded=1;absoluteArcSize=1;arcSize=10;dashed=0;whiteSpace=wrap;" parent="modQz7k9_1uLZjvx2WUS-33" vertex="1">
          <mxGeometry x="320" y="322" width="140" height="50" as="geometry" />
        </mxCell>
        <mxCell id="modQz7k9_1uLZjvx2WUS-45" style="edgeStyle=orthogonalEdgeStyle;rounded=0;orthogonalLoop=1;jettySize=auto;html=1;exitX=0;exitY=0.5;exitDx=0;exitDy=0;entryX=1;entryY=0.5;entryDx=0;entryDy=0;" parent="modQz7k9_1uLZjvx2WUS-33" source="modQz7k9_1uLZjvx2WUS-46" target="modQz7k9_1uLZjvx2WUS-48" edge="1">
          <mxGeometry relative="1" as="geometry" />
        </mxCell>
        <mxCell id="modQz7k9_1uLZjvx2WUS-46" value="Transaktion&lt;div&gt;&amp;nbsp;bestätigen&lt;/div&gt;" style="html=1;align=center;verticalAlign=top;rounded=1;absoluteArcSize=1;arcSize=10;dashed=0;whiteSpace=wrap;" parent="modQz7k9_1uLZjvx2WUS-33" vertex="1">
          <mxGeometry x="320" y="409.5" width="140" height="50" as="geometry" />
        </mxCell>
        <mxCell id="modQz7k9_1uLZjvx2WUS-47" style="edgeStyle=orthogonalEdgeStyle;rounded=0;orthogonalLoop=1;jettySize=auto;html=1;exitX=0;exitY=0.5;exitDx=0;exitDy=0;entryX=1;entryY=0.5;entryDx=0;entryDy=0;" parent="modQz7k9_1uLZjvx2WUS-33" source="modQz7k9_1uLZjvx2WUS-48" target="modQz7k9_1uLZjvx2WUS-49" edge="1">
          <mxGeometry relative="1" as="geometry" />
        </mxCell>
        <mxCell id="modQz7k9_1uLZjvx2WUS-48" value="LogFile erstellen" style="html=1;align=center;verticalAlign=top;rounded=1;absoluteArcSize=1;arcSize=10;dashed=0;whiteSpace=wrap;" parent="modQz7k9_1uLZjvx2WUS-33" vertex="1">
          <mxGeometry x="120" y="414.5" width="140" height="40" as="geometry" />
        </mxCell>
        <mxCell id="modQz7k9_1uLZjvx2WUS-49" value="" style="ellipse;html=1;shape=endState;fillColor=strokeColor;" parent="modQz7k9_1uLZjvx2WUS-33" vertex="1">
          <mxGeometry x="40" y="419.5" width="30" height="30" as="geometry" />
        </mxCell>
        <mxCell id="modQz7k9_1uLZjvx2WUS-50" value="&lt;div style=&quot;&quot;&gt;&lt;span style=&quot;text-wrap-mode: nowrap;&quot;&gt;relevante Daten der&lt;/span&gt;&lt;/div&gt;&lt;div style=&quot;&quot;&gt;&lt;span style=&quot;text-wrap-mode: nowrap;&quot;&gt;modellierten&amp;nbsp;&lt;/span&gt;&lt;/div&gt;&lt;div style=&quot;&quot;&gt;&lt;span style=&quot;text-wrap-mode: nowrap;&quot;&gt;Geschäftsprozesse&lt;/span&gt;&lt;/div&gt;&lt;div style=&quot;&quot;&gt;&lt;span style=&quot;text-wrap-mode: nowrap;&quot;&gt;extrahieren&lt;/span&gt;&lt;/div&gt;" style="shape=note2;boundedLbl=1;whiteSpace=wrap;html=1;size=25;verticalAlign=top;align=left;" parent="modQz7k9_1uLZjvx2WUS-33" vertex="1">
          <mxGeometry x="370" y="15" width="140" height="90" as="geometry" />
        </mxCell>
        <mxCell id="modQz7k9_1uLZjvx2WUS-51" value="" style="endArrow=none;dashed=1;html=1;dashPattern=1 3;strokeWidth=2;rounded=0;exitX=0.5;exitY=1;exitDx=0;exitDy=0;exitPerimeter=0;entryX=0.75;entryY=0;entryDx=0;entryDy=0;" parent="modQz7k9_1uLZjvx2WUS-33" source="modQz7k9_1uLZjvx2WUS-50" target="modQz7k9_1uLZjvx2WUS-39" edge="1">
          <mxGeometry width="50" height="50" relative="1" as="geometry">
            <mxPoint x="350" y="515" as="sourcePoint" />
            <mxPoint x="400" y="465" as="targetPoint" />
          </mxGeometry>
        </mxCell>
        <mxCell id="modQz7k9_1uLZjvx2WUS-52" value="" style="endArrow=none;dashed=1;html=1;dashPattern=1 3;strokeWidth=2;rounded=0;exitX=0.5;exitY=0;exitDx=0;exitDy=0;exitPerimeter=0;entryX=0.557;entryY=0.975;entryDx=0;entryDy=0;entryPerimeter=0;" parent="modQz7k9_1uLZjvx2WUS-33" source="modQz7k9_1uLZjvx2WUS-37" target="modQz7k9_1uLZjvx2WUS-36" edge="1">
          <mxGeometry width="50" height="50" relative="1" as="geometry">
            <mxPoint x="350" y="515" as="sourcePoint" />
            <mxPoint x="400" y="465" as="targetPoint" />
          </mxGeometry>
        </mxCell>
        <mxCell id="modQz7k9_1uLZjvx2WUS-53" value="&lt;div style=&quot;&quot;&gt;&lt;span style=&quot;text-wrap-mode: nowrap;&quot;&gt;Sequenzdiagram(e)&lt;/span&gt;&lt;/div&gt;&lt;div style=&quot;&quot;&gt;&lt;span style=&quot;text-wrap-mode: nowrap;&quot;&gt;- muss genau&lt;/span&gt;&lt;/div&gt;&lt;div style=&quot;&quot;&gt;&lt;span style=&quot;text-wrap-mode: nowrap;&quot;&gt;nachvollziehbar sein&lt;/span&gt;&lt;/div&gt;&lt;div style=&quot;&quot;&gt;&lt;span style=&quot;text-wrap-mode: nowrap;&quot;&gt;wie bereinigt wird&lt;/span&gt;&lt;/div&gt;&lt;div style=&quot;&quot;&gt;&lt;br&gt;&lt;/div&gt;" style="shape=note2;boundedLbl=1;whiteSpace=wrap;html=1;size=25;verticalAlign=top;align=left;" parent="modQz7k9_1uLZjvx2WUS-33" vertex="1">
          <mxGeometry x="470" y="154" width="110" height="96" as="geometry" />
        </mxCell>
        <mxCell id="modQz7k9_1uLZjvx2WUS-54" value="" style="endArrow=none;dashed=1;html=1;dashPattern=1 3;strokeWidth=2;rounded=0;exitX=0;exitY=0.5;exitDx=0;exitDy=0;exitPerimeter=0;entryX=1;entryY=0.5;entryDx=0;entryDy=0;" parent="modQz7k9_1uLZjvx2WUS-33" source="modQz7k9_1uLZjvx2WUS-53" target="modQz7k9_1uLZjvx2WUS-43" edge="1">
          <mxGeometry width="50" height="50" relative="1" as="geometry">
            <mxPoint x="350" y="515" as="sourcePoint" />
            <mxPoint x="400" y="465" as="targetPoint" />
          </mxGeometry>
        </mxCell>
        <mxCell id="modQz7k9_1uLZjvx2WUS-55" value="&lt;div style=&quot;&quot;&gt;&lt;span style=&quot;text-wrap-mode: nowrap;&quot;&gt;Schema und&lt;/span&gt;&lt;/div&gt;&lt;div style=&quot;&quot;&gt;&lt;span style=&quot;text-wrap-mode: nowrap;&quot;&gt;ER-Model zur&lt;/span&gt;&lt;/div&gt;&lt;div style=&quot;&quot;&gt;&lt;span style=&quot;text-wrap-mode: nowrap;&quot;&gt;&amp;nbsp;Schnittstellen&lt;/span&gt;&lt;/div&gt;&lt;div style=&quot;&quot;&gt;&lt;span style=&quot;text-wrap-mode: nowrap;&quot;&gt;beschreibung,&amp;nbsp;&lt;/span&gt;&lt;/div&gt;&lt;div style=&quot;&quot;&gt;&lt;span style=&quot;text-wrap-mode: nowrap;&quot;&gt;impl. CRUD&lt;/span&gt;&lt;/div&gt;" style="shape=note2;boundedLbl=1;whiteSpace=wrap;html=1;size=25;verticalAlign=top;align=left;" parent="modQz7k9_1uLZjvx2WUS-33" vertex="1">
          <mxGeometry x="490" y="305" width="90" height="115" as="geometry" />
        </mxCell>
        <mxCell id="modQz7k9_1uLZjvx2WUS-56" value="" style="endArrow=none;dashed=1;html=1;dashPattern=1 3;strokeWidth=2;rounded=0;exitX=0;exitY=0.719;exitDx=0;exitDy=0;exitPerimeter=0;entryX=1;entryY=0.75;entryDx=0;entryDy=0;" parent="modQz7k9_1uLZjvx2WUS-33" source="modQz7k9_1uLZjvx2WUS-55" target="modQz7k9_1uLZjvx2WUS-44" edge="1">
          <mxGeometry width="50" height="50" relative="1" as="geometry">
            <mxPoint x="350" y="515" as="sourcePoint" />
            <mxPoint x="400" y="465" as="targetPoint" />
          </mxGeometry>
        </mxCell>
        <mxCell id="wEUyzExfNlaNoi49jksf-1" value="&lt;div style=&quot;text-align: center;&quot;&gt;&lt;span style=&quot;text-wrap-mode: nowrap;&quot;&gt;Überprüfbarkeit&lt;/span&gt;&lt;/div&gt;&lt;div style=&quot;text-align: center;&quot;&gt;&lt;span style=&quot;text-wrap-mode: nowrap;&quot;&gt;&amp;nbsp;der Datenbereitstellung,&lt;/span&gt;&lt;/div&gt;&lt;div style=&quot;text-align: center;&quot;&gt;&lt;span style=&quot;text-wrap-mode: nowrap;&quot;&gt;&amp;nbsp;Fehlerdiagnosen&lt;/span&gt;&lt;/div&gt;" style="shape=note2;boundedLbl=1;whiteSpace=wrap;html=1;size=25;verticalAlign=top;align=left;" vertex="1" parent="modQz7k9_1uLZjvx2WUS-33">
          <mxGeometry x="130" y="307" width="140" height="80" as="geometry" />
        </mxCell>
        <mxCell id="wEUyzExfNlaNoi49jksf-2" value="" style="endArrow=none;dashed=1;html=1;dashPattern=1 3;strokeWidth=2;rounded=0;exitX=0.5;exitY=1;exitDx=0;exitDy=0;exitPerimeter=0;entryX=0.5;entryY=0;entryDx=0;entryDy=0;" edge="1" parent="modQz7k9_1uLZjvx2WUS-33" source="wEUyzExfNlaNoi49jksf-1" target="modQz7k9_1uLZjvx2WUS-48">
          <mxGeometry width="50" height="50" relative="1" as="geometry">
            <mxPoint x="360" y="530" as="sourcePoint" />
            <mxPoint x="410" y="480" as="targetPoint" />
          </mxGeometry>
        </mxCell>
        <mxCell id="modQz7k9_1uLZjvx2WUS-57" value="IHK-Projektarbeit: &lt;br&gt;Oktober/November 2025,&amp;nbsp; Dauer: 2Wochen, Dokumentgetriebenes Wasserfallprojekt, Maximale Testsuite abdeckung durch TDD(TestDrivenDevelopement)" style="text;html=1;align=left;verticalAlign=middle;whiteSpace=wrap;rounded=0;" parent="5Ts_VFppCyEGoZbiud__-1" vertex="1">
          <mxGeometry x="20" y="50" width="730" height="30" as="geometry" />
        </mxCell>
        <mxCell id="modQz7k9_1uLZjvx2WUS-58" value="" style="shape=datastore;html=1;labelPosition=center;verticalLabelPosition=bottom;align=center;verticalAlign=top;" parent="5Ts_VFppCyEGoZbiud__-1" vertex="1">
          <mxGeometry x="650" y="335" width="50" height="60" as="geometry" />
        </mxCell>
        <mxCell id="modQz7k9_1uLZjvx2WUS-59" style="edgeStyle=orthogonalEdgeStyle;rounded=0;orthogonalLoop=1;jettySize=auto;html=1;exitX=0.5;exitY=1;exitDx=0;exitDy=0;entryX=1;entryY=0.5;entryDx=0;entryDy=0;" parent="5Ts_VFppCyEGoZbiud__-1" source="modQz7k9_1uLZjvx2WUS-58" target="modQz7k9_1uLZjvx2WUS-46" edge="1">
          <mxGeometry relative="1" as="geometry">
            <Array as="points">
              <mxPoint x="675" y="525" />
            </Array>
          </mxGeometry>
        </mxCell>
        <mxCell id="modQz7k9_1uLZjvx2WUS-60" style="edgeStyle=orthogonalEdgeStyle;rounded=0;orthogonalLoop=1;jettySize=auto;html=1;exitX=1;exitY=0.5;exitDx=0;exitDy=0;entryX=0;entryY=0.5;entryDx=0;entryDy=0;" parent="5Ts_VFppCyEGoZbiud__-1" source="modQz7k9_1uLZjvx2WUS-44" target="modQz7k9_1uLZjvx2WUS-58" edge="1">
          <mxGeometry relative="1" as="geometry">
            <Array as="points">
              <mxPoint x="500" y="422" />
              <mxPoint x="500" y="365" />
            </Array>
          </mxGeometry>
        </mxCell>
        <mxCell id="modQz7k9_1uLZjvx2WUS-61" value="Geschäftsprozesse" style="text;html=1;align=center;verticalAlign=middle;whiteSpace=wrap;rounded=0;" parent="5Ts_VFppCyEGoZbiud__-1" vertex="1">
          <mxGeometry x="640" y="310" width="60" height="30" as="geometry" />
        </mxCell>
        <mxCell id="modQz7k9_1uLZjvx2WUS-62" value="&lt;span style=&quot;text-align: center; text-wrap-mode: nowrap;&quot;&gt;SQL3ight oder&lt;/span&gt;&lt;div&gt;&lt;span style=&quot;text-align: center; text-wrap-mode: nowrap;&quot;&gt;vergleichbare rel. DB,&lt;/span&gt;&lt;/div&gt;&lt;div style=&quot;text-align: center;&quot;&gt;&lt;span style=&quot;text-wrap-mode: nowrap;&quot;&gt;ermöglicht SQL views,&amp;nbsp;&lt;/span&gt;&lt;/div&gt;&lt;div style=&quot;text-align: center;&quot;&gt;&lt;span style=&quot;text-wrap-mode: nowrap;&quot;&gt;kann leichter integriert&lt;/span&gt;&lt;/div&gt;&lt;div style=&quot;text-align: center;&quot;&gt;&lt;span style=&quot;text-wrap-mode: nowrap; background-color: transparent; color: light-dark(rgb(0, 0, 0), rgb(255, 255, 255));&quot;&gt;werden in andere&lt;/span&gt;&lt;/div&gt;&lt;div style=&quot;text-align: center;&quot;&gt;&lt;span style=&quot;text-wrap-mode: nowrap;&quot;&gt;&amp;nbsp;relationale Datenbanken&lt;/span&gt;&lt;/div&gt;&lt;div style=&quot;text-align: center;&quot;&gt;&lt;span style=&quot;text-wrap-mode: nowrap;&quot;&gt;&amp;nbsp;im vgl. zu NoSQL Lösungen&lt;/span&gt;&lt;/div&gt;&lt;div style=&quot;text-align: center;&quot;&gt;&lt;br&gt;&lt;/div&gt;&lt;div style=&quot;text-align: center;&quot;&gt;&lt;span style=&quot;text-wrap-mode: nowrap;&quot;&gt;&lt;br&gt;&lt;/span&gt;&lt;/div&gt;" style="shape=note2;boundedLbl=1;whiteSpace=wrap;html=1;size=25;verticalAlign=top;align=left;" parent="5Ts_VFppCyEGoZbiud__-1" vertex="1">
          <mxGeometry x="630" y="130" width="160" height="140" as="geometry" />
        </mxCell>
        <mxCell id="modQz7k9_1uLZjvx2WUS-63" value="" style="endArrow=none;dashed=1;html=1;dashPattern=1 3;strokeWidth=2;rounded=0;exitX=0.5;exitY=1;exitDx=0;exitDy=0;exitPerimeter=0;entryX=0.5;entryY=1;entryDx=0;entryDy=0;" parent="5Ts_VFppCyEGoZbiud__-1" source="modQz7k9_1uLZjvx2WUS-62" target="modQz7k9_1uLZjvx2WUS-61" edge="1">
          <mxGeometry width="50" height="50" relative="1" as="geometry">
            <mxPoint x="370" y="590" as="sourcePoint" />
            <mxPoint x="420" y="540" as="targetPoint" />
          </mxGeometry>
        </mxCell>
        <mxCell id="modQz7k9_1uLZjvx2WUS-64" style="edgeStyle=orthogonalEdgeStyle;rounded=0;orthogonalLoop=1;jettySize=auto;html=1;exitX=1;exitY=0.5;exitDx=0;exitDy=0;entryX=0.85;entryY=0.95;entryDx=0;entryDy=0;entryPerimeter=0;dashed=1;" parent="5Ts_VFppCyEGoZbiud__-1" source="5Ts_VFppCyEGoZbiud__-47" target="modQz7k9_1uLZjvx2WUS-58" edge="1">
          <mxGeometry relative="1" as="geometry" />
        </mxCell>
        <mxCell id="modQz7k9_1uLZjvx2WUS-65" style="edgeStyle=orthogonalEdgeStyle;rounded=0;orthogonalLoop=1;jettySize=auto;html=1;exitX=1;exitY=0.5;exitDx=0;exitDy=0;entryX=0.66;entryY=0.933;entryDx=0;entryDy=0;entryPerimeter=0;dashed=1;" parent="5Ts_VFppCyEGoZbiud__-1" source="5Ts_VFppCyEGoZbiud__-62" target="modQz7k9_1uLZjvx2WUS-58" edge="1">
          <mxGeometry relative="1" as="geometry" />
        </mxCell>
        <mxCell id="wEUyzExfNlaNoi49jksf-6" value="weiter Anwendungen können im Idelafall zuverlässig anhand der Dokumentation, Datenschema und den Artefakten entwickelt werden" style="text;html=1;align=left;verticalAlign=middle;whiteSpace=wrap;rounded=0;" vertex="1" parent="5Ts_VFppCyEGoZbiud__-1">
          <mxGeometry x="30" y="920" width="720" height="30" as="geometry" />
        </mxCell>
        <mxCell id="wEUyzExfNlaNoi49jksf-3" value="" style="endArrow=none;dashed=1;html=1;dashPattern=8 8;strokeWidth=2;rounded=0;exitX=0.001;exitY=0.565;exitDx=0;exitDy=0;exitPerimeter=0;entryX=1.003;entryY=0.564;entryDx=0;entryDy=0;entryPerimeter=0;fillColor=#f8cecc;strokeColor=#b85450;" edge="1" parent="1" source="5Ts_VFppCyEGoZbiud__-1" target="5Ts_VFppCyEGoZbiud__-1">
          <mxGeometry width="50" height="50" relative="1" as="geometry">
            <mxPoint x="390" y="640" as="sourcePoint" />
            <mxPoint x="440" y="590" as="targetPoint" />
          </mxGeometry>
        </mxCell>
        <mxCell id="wEUyzExfNlaNoi49jksf-4" value="Abgrenzung zum IHK-Projekt" style="edgeLabel;html=1;align=center;verticalAlign=middle;resizable=0;points=[];" vertex="1" connectable="0" parent="wEUyzExfNlaNoi49jksf-3">
          <mxGeometry x="-0.74" relative="1" as="geometry">
            <mxPoint x="272" as="offset" />
          </mxGeometry>
        </mxCell>
      </root>
    </mxGraphModel>
  </diagram>
</mxfile>
